<?xml version="1.0" standalone="no"?>
<!DOCTYPE svg PUBLIC "-//W3C//DTD SVG 20010904//EN"
 "http://www.w3.org/TR/2001/REC-SVG-20010904/DTD/svg10.dtd">
<svg version="1.0" xmlns="http://www.w3.org/2000/svg"
 width="800.000000pt" height="800.000000pt" viewBox="0 0 800.000000 800.000000"
 preserveAspectRatio="xMidYMid meet">

<g transform="translate(0.000000,800.000000) scale(0.100000,-0.100000)"
fill="#000000" stroke="none">
<path d="M2670 6599 c0 -21 -4 -21 -65 -17 -41 4 -63 2 -59 -4 4 -7 -14 -8
-52 -4 -33 4 -63 7 -69 6 -27 -2 -123 -11 -142 -13 -13 -2 -26 -6 -29 -10 -4
-4 -17 -7 -28 -7 -12 0 -34 -7 -51 -16 -16 -9 -39 -18 -49 -20 -11 -2 -22 -7
-25 -12 -3 -4 -29 -13 -57 -20 -51 -11 -143 -60 -144 -75 -1 -22 -72 -114
-102 -131 -48 -28 -185 -171 -221 -230 -17 -28 -36 -55 -42 -61 -18 -16 -70
-99 -67 -108 1 -4 -5 -24 -13 -43 -8 -20 -15 -44 -15 -53 0 -9 -7 -28 -14 -43
-8 -16 -15 -36 -15 -45 0 -10 -6 -38 -14 -63 -45 -139 -61 -263 -57 -445 1
-33 -5 -91 -13 -128 -16 -79 -22 -217 -9 -217 5 0 8 -33 6 -74 -3 -59 -1 -75
11 -80 15 -5 21 -47 8 -59 -3 -4 -14 0 -24 9 -32 29 -40 8 -38 -104 1 -93 5
-116 31 -177 48 -118 47 -115 48 -60 1 37 4 45 10 30 10 -26 9 -29 60 185 39
162 54 200 82 200 15 0 36 -62 43 -130 11 -107 43 -229 78 -293 57 -108 123
-158 267 -202 53 -16 69 -23 43 -19 -52 7 -59 -12 -8 -22 19 -3 39 -12 46 -20
6 -8 15 -11 20 -9 4 3 6 -3 4 -13 -4 -22 4 -37 25 -45 11 -4 9 -6 -5 -6 -13
-1 -25 -12 -31 -28 -11 -28 -110 -96 -140 -96 -8 0 -14 -8 -14 -17 0 -22 -45
-64 -59 -55 -6 3 -11 1 -11 -6 0 -10 -3 -10 -11 -2 -8 8 -18 8 -35 1 -29 -13
-32 -32 -5 -23 25 8 35 -9 16 -25 -8 -7 -15 -20 -15 -29 -1 -13 -4 -12 -18 5
-18 21 -18 21 -18 -15 -1 -20 -4 -46 -9 -59 -6 -18 -4 -21 9 -16 10 4 16 1 16
-9 0 -15 27 -30 46 -26 32 5 74 -3 74 -14 0 -8 9 -22 20 -32 11 -10 29 -38 42
-64 12 -25 24 -48 28 -51 8 -6 5 -110 -4 -131 -4 -10 -3 -20 3 -24 13 -7 15
-45 3 -45 -5 0 -13 -16 -19 -35 -6 -20 -7 -35 -2 -35 5 0 10 10 10 23 1 20 2
20 6 2 3 -11 11 -27 19 -36 8 -8 17 -30 20 -47 4 -18 13 -32 20 -32 17 0 17 2
3 33 -8 18 -8 30 0 45 7 13 7 23 2 27 -6 3 -4 17 4 32 8 15 12 37 9 49 -4 14
0 23 10 27 9 4 16 11 16 17 0 6 -4 9 -9 5 -5 -3 -12 -1 -16 5 -3 5 -1 10 5 10
6 0 23 12 38 28 57 57 60 57 84 27 88 -112 189 -191 259 -202 28 -4 30 -3 19
16 -6 12 -17 21 -25 21 -9 0 -23 9 -32 19 -9 11 -20 18 -25 15 -4 -3 -5 2 -2
11 7 17 42 11 59 -11 17 -21 219 -47 320 -41 49 4 97 7 105 9 8 2 15 -1 15 -7
0 -5 -8 -8 -19 -7 -10 2 -15 -1 -12 -6 11 -18 -69 -41 -127 -38 -30 2 -60 6
-65 10 -5 3 -23 1 -41 -4 -19 -5 -31 -5 -31 1 0 12 -37 12 -44 0 -10 -16 33
-58 66 -66 50 -12 121 -16 138 -9 30 14 47 13 47 -1 0 -10 -9 -14 -27 -13 -35
3 -90 -21 -90 -38 0 -8 -4 -14 -10 -14 -5 0 -10 9 -10 20 0 22 -5 23 -35 10
-19 -8 -19 -9 3 -9 26 -1 30 -21 5 -21 -25 0 -46 -47 -26 -55 12 -4 13 -8 3
-20 -15 -19 -5 -34 12 -17 8 8 14 7 24 -5 10 -14 16 -15 37 -6 22 10 25 10 20
-4 -5 -12 -1 -14 18 -8 13 4 27 13 31 18 5 8 14 8 30 0 13 -7 33 -15 45 -18
20 -5 22 -3 20 29 -2 20 -8 41 -14 47 -9 9 -8 16 4 28 12 12 17 13 21 3 2 -6
8 -12 14 -12 6 0 7 7 4 16 -3 9 -2 12 5 9 5 -4 17 -1 26 7 14 11 16 10 11 -14
-5 -24 -3 -26 20 -17 21 8 23 7 18 -7 -5 -13 -3 -14 6 -7 7 6 28 14 46 18 17
3 32 11 32 16 0 18 -19 47 -36 53 -13 5 -15 2 -11 -14 6 -22 -8 -28 -17 -7 -5
9 -7 10 -12 0 -12 -28 -26 -12 -20 22 7 35 7 35 -29 35 -19 0 -35 -5 -35 -11
0 -5 -5 -7 -10 -4 -16 10 -1 25 25 25 14 0 32 11 44 28 12 16 18 19 15 9 -6
-17 -5 -18 17 -5 13 7 32 19 42 27 9 8 17 11 17 7 0 -4 18 6 39 23 21 17 43
31 47 31 5 0 18 14 29 30 20 30 54 41 56 18 0 -7 4 -5 8 5 6 16 8 15 20 -10 7
-15 17 -36 22 -45 12 -23 12 -154 0 -195 -6 -19 -5 -35 1 -41 6 -6 1 -19 -16
-35 -14 -14 -26 -31 -26 -37 0 -16 21 -12 37 8 13 15 14 14 9 -17 -3 -18 -6
-42 -6 -52 0 -11 -7 -19 -17 -20 -15 0 -15 -2 2 -9 18 -7 18 -9 3 -15 -10 -4
-29 -31 -44 -61 -14 -30 -33 -54 -40 -54 -8 0 -14 -7 -14 -16 0 -8 -5 -12 -11
-9 -6 4 -13 -3 -16 -14 -5 -20 -6 -21 -20 -4 -11 14 -13 14 -10 3 3 -11 -3
-16 -20 -18 -13 -1 -31 -9 -39 -17 -9 -8 -20 -15 -27 -15 -6 0 -2 7 9 15 16
12 16 14 3 15 -9 0 -29 -7 -45 -15 -19 -10 -30 -11 -35 -4 -4 6 -9 3 -14 -8
-7 -17 -8 -17 -15 2 -7 17 -9 17 -9 3 -1 -17 -11 -21 -53 -21 -9 0 -19 -10
-22 -23 -4 -14 -14 -24 -24 -24 -13 0 -14 2 -3 9 7 5 11 14 7 19 -7 12 -66
-40 -66 -58 0 -5 -3 -10 -7 -11 -49 -5 -63 -3 -59 7 3 7 -2 20 -11 31 -13 16
-14 16 -9 1 3 -10 1 -18 -4 -18 -6 0 -10 5 -10 11 0 5 -5 7 -12 3 -6 -4 -17 1
-24 11 -7 10 -20 15 -28 12 -8 -3 -17 1 -20 10 -5 11 -14 14 -36 9 -19 -3 -30
-1 -30 6 0 6 -9 3 -20 -7 -13 -11 -20 -14 -20 -6 0 8 -7 10 -20 6 -15 -5 -22
-1 -28 16 -5 13 -11 18 -15 12 -4 -7 -27 -1 -63 18 -61 32 -80 35 -87 17 -4
-10 -6 -10 -6 0 -1 6 -6 12 -12 12 -14 0 -69 56 -69 69 0 5 -15 18 -32 30 -36
22 -68 56 -68 71 0 6 -4 10 -9 10 -5 0 -12 8 -16 19 -8 27 -40 61 -57 61 -8 0
-21 11 -28 25 -7 14 -19 25 -26 25 -17 0 -46 43 -42 61 2 9 -8 15 -26 17 -22
3 -26 6 -15 13 12 8 11 12 -4 23 -17 13 -17 14 0 21 17 6 17 7 -1 21 -25 18
-36 18 -36 -1 0 -8 -4 -15 -10 -15 -5 0 -10 5 -10 11 0 8 -5 8 -15 -1 -12 -10
-15 -10 -15 4 0 9 7 16 16 16 8 0 12 5 8 11 -4 8 -9 8 -17 0 -15 -15 -27 -14
-27 3 0 8 -4 17 -10 21 -13 8 18 -91 41 -128 10 -18 24 -43 30 -57 6 -14 16
-34 22 -45 35 -67 57 -120 57 -137 0 -8 8 -23 18 -34 10 -10 24 -35 32 -53 8
-19 53 -74 101 -122 83 -84 86 -89 74 -113 -15 -28 -3 -46 30 -46 25 0 55 -31
73 -75 14 -35 56 -57 90 -49 12 4 22 2 22 -4 0 -6 13 -19 29 -28 17 -10 28
-21 25 -26 -3 -4 3 -11 13 -15 10 -4 38 -23 62 -42 30 -24 43 -30 38 -18 -9
25 22 36 38 13 7 -9 24 -18 37 -19 12 -1 29 -7 36 -13 14 -14 189 -8 208 8 6
4 19 6 28 2 10 -4 30 4 50 20 19 14 44 26 56 26 12 0 19 4 16 9 -8 12 41 20
53 8 6 -6 17 -2 30 10 23 22 45 23 78 5 22 -12 40 -1 29 17 -4 5 3 7 13 4 39
-10 110 67 75 81 -8 3 -14 11 -14 18 0 10 2 10 9 0 6 -10 10 -10 20 2 7 8 18
13 26 10 7 -3 16 -1 20 5 3 6 15 11 25 11 13 0 17 5 14 15 -4 8 -2 15 4 15 5
0 7 11 4 25 -2 14 0 25 4 25 5 0 20 10 34 23 43 39 74 57 98 57 12 0 25 8 29
17 4 10 10 20 14 23 4 3 10 17 14 32 5 20 1 32 -15 48 -25 25 -28 64 -9 130 7
25 11 53 10 62 -4 28 38 107 115 219 123 179 190 328 209 459 4 25 10 63 14
85 4 22 4 58 0 80 -4 22 -5 48 -3 58 3 9 1 17 -5 17 -5 0 -13 -10 -17 -22 -16
-54 -60 -73 -99 -44 -19 14 -55 11 -55 -5 0 -5 -4 -9 -10 -9 -5 0 -10 7 -10
15 0 19 -26 20 -34 0 -3 -8 -2 -14 2 -12 7 2 12 -6 12 -18 0 -3 -9 -1 -19 5
-16 8 -23 5 -40 -18 -18 -24 -20 -25 -21 -7 0 14 -3 16 -8 7 -6 -9 -14 -6 -29
12 -12 13 -19 27 -16 30 4 3 2 6 -4 6 -5 0 -19 8 -31 18 -11 9 -30 24 -41 32
-12 8 -21 25 -21 38 0 13 -4 21 -9 18 -4 -3 -17 2 -27 10 -18 15 -18 15 4 11
12 -3 22 -1 22 4 0 5 -14 9 -31 9 l-31 0 23 19 c15 12 29 16 38 11 9 -5 20 -2
29 7 8 8 21 12 28 9 8 -3 14 -1 14 4 0 5 15 10 33 12 40 4 42 21 2 28 -22 5
-13 8 40 13 169 16 272 122 361 372 l29 80 3 -162 c1 -90 6 -163 11 -163 4 0
23 28 42 63 28 52 34 73 35 132 0 39 4 88 9 110 l8 40 -23 -20 c-13 -11 -20
-14 -16 -7 13 22 14 62 2 62 -7 0 -6 3 2 8 20 13 33 71 21 94 -9 18 -8 19 11
13 19 -6 20 -4 13 22 -14 53 -6 334 11 362 4 6 9 25 11 41 2 16 9 47 15 70 6
22 8 51 4 63 -4 12 -6 35 -6 52 1 16 -5 69 -13 116 -16 91 -10 157 19 222 8
18 17 45 20 60 7 32 -10 138 -29 177 -7 14 -15 40 -18 57 -4 18 -24 55 -46 82
-39 50 -69 136 -57 167 3 8 -1 29 -10 46 -12 22 -15 46 -11 79 5 40 3 50 -18
69 -14 13 -29 38 -35 56 -16 46 -51 66 -124 68 -33 1 -71 7 -82 13 -12 7 -39
17 -60 22 -22 5 -64 16 -94 24 -31 7 -62 11 -69 9 -7 -2 -18 4 -25 13 -9 12
-18 15 -27 10 -7 -5 -20 -10 -29 -11 -8 -1 -19 -3 -25 -5 -5 -2 -27 0 -48 5
-38 7 -39 8 -33 42 6 31 5 34 -19 34 -14 0 -25 -4 -25 -8 0 -9 -44 -32 -62
-32 -5 0 -8 6 -5 14 8 20 -14 26 -56 16 -27 -6 -39 -4 -48 6 -7 8 -19 12 -28
9 -11 -3 -23 5 -34 25 -19 31 -36 36 -104 31 -18 -1 -48 5 -69 14 -46 19 -44
19 -44 -6z m460 -100 c-7 -11 -14 -18 -17 -15 -3 3 0 12 7 21 18 21 23 19 10
-6z m-120 -989 c0 -5 -12 -10 -27 -9 -25 0 -26 1 -8 9 27 12 35 12 35 0z m33
-36 c20 -3 37 -10 37 -15 0 -5 8 -9 18 -9 12 0 18 -7 18 -20 -1 -10 4 -19 9
-19 6 0 9 7 9 15 -3 22 7 17 61 -31 45 -40 111 -81 125 -78 3 1 7 -12 8 -30 3
-35 12 -51 12 -21 0 17 6 19 48 15 36 -3 42 -6 27 -12 -19 -7 -19 -8 3 -8 18
-1 23 4 20 21 -2 16 3 24 16 26 14 3 17 0 13 -13 -4 -9 -3 -13 2 -10 5 3 13 0
16 -6 4 -5 13 -8 21 -5 7 3 16 1 19 -3 6 -11 -19 -21 -53 -21 -44 0 -11 -19
48 -28 36 -5 54 -13 52 -21 -1 -6 4 -21 12 -33 8 -11 12 -27 9 -34 -3 -8 0
-14 7 -14 6 0 8 -5 5 -10 -4 -6 -2 -16 3 -23 5 -7 10 -32 9 -57 0 -24 5 -46
11 -48 5 -1 8 -17 5 -34 -4 -26 -2 -30 12 -24 13 5 16 2 11 -10 -7 -17 25 -97
43 -108 6 -4 11 -16 11 -27 0 -11 7 -22 15 -25 8 -3 24 -31 35 -62 12 -31 26
-62 32 -69 8 -10 3 -12 -23 -7 -42 8 -99 34 -99 44 0 5 -8 11 -18 14 -10 4
-27 14 -38 24 -29 28 -114 75 -121 68 -4 -3 -15 1 -25 11 -10 9 -18 11 -18 5
0 -6 6 -12 13 -15 6 -2 -8 -2 -33 1 -68 8 -179 9 -175 2 2 -4 -28 -12 -68 -18
-49 -7 -74 -8 -78 -1 -4 7 -9 5 -12 -5 -6 -15 -42 -17 -64 -3 -6 4 -19 4 -28
1 -10 -4 -21 1 -29 12 -11 14 -17 16 -28 6 -8 -6 -28 -11 -44 -11 -16 1 -46
-5 -66 -12 -29 -11 -36 -18 -32 -31 4 -14 1 -16 -13 -11 -10 4 -24 13 -31 20
-17 16 -42 6 -42 -17 0 -12 9 -20 22 -22 16 -2 24 -12 29 -38 4 -19 6 -37 4
-39 -6 -6 -109 9 -124 18 -17 11 -6 49 17 53 9 2 22 -2 27 -8 6 -7 20 -15 33
-19 17 -5 22 -2 22 10 0 11 -5 15 -15 11 -10 -3 -17 3 -21 20 -4 15 -12 23
-23 22 -9 -2 -15 2 -14 9 2 9 -4 10 -23 3 -23 -9 -25 -8 -19 10 4 11 2 20 -4
20 -6 0 -8 7 -5 14 4 11 -1 14 -23 12 -15 -1 -34 2 -41 7 -6 5 -37 7 -67 5
-31 -3 -50 -1 -43 3 17 11 3 11 -49 -1 -34 -8 -61 -5 -143 14 -55 14 -121 28
-146 32 -34 5 -44 10 -40 21 4 10 1 13 -12 9 -56 -17 -69 -17 -75 -2 -7 17
-37 22 -37 6 0 -5 -17 -10 -37 -9 l-38 1 35 11 c23 7 29 12 18 14 -10 3 -33
-3 -53 -13 -30 -14 -54 -15 -171 -9 l-136 7 36 35 c20 20 36 39 36 44 0 18 4
24 27 43 13 10 22 20 19 23 -2 3 1 21 8 41 7 21 16 60 20 87 4 28 15 58 23 68
9 9 13 17 10 17 -4 0 5 16 18 36 14 20 25 41 25 47 0 11 42 52 70 67 10 5 34
11 53 12 23 2 33 7 30 16 -3 6 2 12 11 12 9 0 16 -5 16 -11 0 -5 5 -7 11 -4 6
4 31 9 56 12 l46 5 -16 -26 -17 -25 35 21 c25 14 46 19 69 15 18 -3 39 -2 46
3 8 5 19 3 27 -6 8 -8 27 -14 43 -14 16 0 30 -6 33 -12 3 -10 9 -10 26 0 18
10 21 10 21 -4 0 -13 8 -15 38 -12 20 3 46 8 57 12 15 6 16 5 6 -2 -10 -7 -4
-10 23 -10 23 0 39 5 43 14 3 9 20 14 45 14 23 0 37 4 33 10 -3 6 -3 10 2 10
4 0 19 3 32 7 17 4 22 3 17 -5 -4 -7 9 -6 36 4 24 8 59 17 78 19 50 5 64 9 72
20 5 6 8 5 8 -2 0 -7 5 -13 11 -13 6 0 9 6 6 13 -2 7 12 17 37 24 40 11 69 11
149 -3z m361 -167 c-8 -22 -34 -22 -33 1 0 10 3 12 6 4 7 -19 23 -4 16 16 -4
13 -3 14 6 6 6 -6 9 -18 5 -27z m-1934 -466 c-5 -11 -10 -33 -10 -49 0 -21 -7
-32 -25 -40 -13 -6 -27 -7 -30 -2 -8 12 13 62 37 88 26 27 42 29 28 3z m1140
-106 c0 -8 -2 -15 -4 -15 -2 0 -6 7 -10 15 -3 8 -1 15 4 15 6 0 10 -7 10 -15z
m-580 -60 c-11 -13 -8 -14 16 -10 33 6 60 -7 50 -24 -9 -14 -86 -15 -86 -1 0
17 -61 42 -89 36 -19 -5 -22 -4 -11 4 8 5 41 10 74 10 51 0 57 -2 46 -15z
m-316 -21 c8 -3 13 -11 10 -19 -3 -7 2 -15 11 -18 13 -6 11 -13 -15 -48 -16
-23 -27 -45 -24 -50 3 -5 -4 -9 -15 -9 -11 0 -23 -5 -26 -10 -14 -23 -25 5
-25 62 0 80 30 113 84 92z m1897 -107 c-13 -13 -26 -3 -16 12 3 6 11 8 17 5 6
-4 6 -10 -1 -17z m96 -33 c13 -21 12 -22 -23 -26 -31 -4 -34 -3 -19 9 10 7 22
10 26 7 5 -3 9 0 9 6 0 8 -15 10 -47 5 -42 -5 -45 -4 -33 10 18 22 69 15 87
-11z m-1975 -55 c30 -1 61 2 69 6 11 7 11 5 -1 -10 -14 -17 -14 -18 6 -7 26
14 37 5 23 -19 -8 -15 -6 -21 6 -25 9 -4 14 -13 11 -20 -3 -8 1 -14 9 -14 8 0
15 -7 15 -15 0 -11 11 -15 43 -15 57 0 87 -9 81 -25 -4 -9 18 -12 88 -13 75
-1 99 3 126 19 18 10 38 19 43 19 6 0 28 9 51 20 22 11 45 17 49 14 5 -3 9 2
9 10 0 9 5 16 11 16 5 0 8 -4 5 -9 -13 -20 7 -43 33 -38 43 7 56 11 63 22 16
21 7 -32 -12 -74 -11 -23 -17 -48 -13 -54 3 -6 1 -7 -5 -3 -11 6 -16 -5 -13
-26 1 -13 -73 -71 -118 -92 -40 -18 -64 -21 -176 -20 -248 1 -381 58 -449 193
-24 45 -46 120 -46 154 0 24 3 26 18 18 10 -5 43 -11 74 -12z m322 -28 c-33
-20 -84 -32 -84 -21 0 5 -9 6 -20 3 -11 -3 -20 0 -20 6 0 6 7 11 16 11 8 0 13
3 11 8 -3 4 24 8 61 9 l65 2 -29 -18z m706 -1 c48 -26 102 -219 66 -233 -9 -4
-16 -11 -16 -17 0 -6 4 -9 8 -6 4 3 17 -12 28 -32 21 -40 44 -63 57 -55 4 2 7
1 6 -4 -4 -23 3 -45 20 -62 10 -10 21 -34 25 -54 5 -27 12 -36 31 -39 18 -4
25 -1 25 10 0 32 13 0 17 -43 6 -50 -7 -70 -53 -81 -16 -4 -26 -3 -22 1 10 10
-28 48 -41 40 -6 -3 -11 0 -12 7 0 10 -2 10 -6 0 -2 -6 -9 -10 -14 -6 -11 6
-61 -31 -53 -39 3 -3 -4 -10 -15 -17 -16 -8 -21 -8 -21 2 0 8 -5 5 -11 -5 -8
-14 -14 -16 -25 -6 -8 6 -25 8 -40 5 -18 -5 -32 -2 -45 10 -17 15 -19 15 -19
1 0 -17 -36 -27 -83 -23 -19 2 -36 15 -57 43 -35 47 -62 58 -101 37 -55 -28
-129 -9 -129 34 0 37 36 124 55 134 18 10 19 10 6 -5 -8 -10 -9 -17 -3 -17 6
0 14 5 18 11 4 8 9 7 15 -2 11 -18 75 34 100 81 10 19 23 41 29 48 8 9 9 17 1
25 -7 10 2 34 34 91 25 43 45 82 45 87 0 5 19 30 42 55 40 43 45 46 81 40 22
-4 48 -11 57 -16z m-860 0 c0 -5 -6 -11 -12 -11 -7 -1 -23 -3 -35 -4 -12 -1
-20 2 -17 7 3 4 9 6 13 4 4 -3 13 -1 21 5 20 12 30 11 30 -1z m1827 -102 c-3
-8 -6 -5 -6 6 -1 11 2 17 5 13 3 -3 4 -12 1 -19z m-787 -38 c0 -10 58 -11 65
0 13 21 52 9 110 -35 96 -71 143 -84 332 -87 91 -2 159 1 156 6 -3 5 0 6 8 4
14 -5 38 19 38 37 0 6 -6 1 -14 -9 -15 -19 -15 -19 -15 2 0 11 -9 27 -20 35
-20 14 -19 14 7 14 16 -1 45 2 66 6 46 8 46 4 6 -81 -41 -84 -96 -144 -162
-173 -95 -43 -342 -28 -449 27 -75 39 -134 118 -144 192 -2 20 -7 44 -9 53 -3
9 1 16 10 16 8 0 15 -3 15 -7z m-700 -420 c0 -5 -5 -10 -11 -10 -5 0 -7 -4 -4
-10 11 -18 25 -11 26 13 1 20 2 20 12 -5 6 -16 17 -28 24 -28 8 0 13 -12 13
-28 0 -33 16 -53 38 -45 10 5 13 2 8 -6 -6 -9 -2 -12 10 -11 11 1 26 2 34 1
13 -1 13 -2 0 -11 -12 -8 -11 -10 7 -8 15 2 29 -8 46 -32 13 -19 29 -34 35
-33 6 2 9 -4 6 -11 -4 -11 0 -13 15 -9 16 4 21 1 21 -15 0 -11 -6 -22 -12 -25
-10 -3 -10 -7 -1 -18 8 -10 28 -14 63 -13 29 2 48 -1 45 -7 -4 -5 -14 -10 -23
-10 -9 -1 1 -5 23 -9 28 -5 46 -3 61 7 17 11 23 11 26 2 2 -7 11 -10 22 -6 14
6 15 10 5 28 -10 19 -9 21 5 16 9 -4 16 -3 16 1 0 4 18 8 40 8 22 1 40 -3 40
-8 0 -5 -4 -7 -8 -4 -5 3 -22 1 -38 -4 -22 -6 -24 -9 -9 -10 11 -1 23 -2 28
-1 4 0 7 -4 7 -11 0 -9 3 -9 12 0 7 7 22 12 34 12 25 0 45 21 26 28 -7 2 -12
11 -12 20 0 13 2 13 14 -3 13 -18 15 -18 31 -2 25 26 55 40 55 26 0 -15 80 -2
101 17 21 19 25 18 25 -6 0 -15 -5 -18 -18 -14 -15 4 -17 1 -11 -28 3 -18 10
-38 15 -45 5 -7 5 -14 -2 -18 -5 -3 -10 -11 -10 -16 0 -6 5 -7 10 -4 6 3 10 1
10 -4 0 -6 5 -11 11 -11 6 0 18 -8 27 -17 13 -13 14 -17 3 -21 -11 -4 -11 -6
0 -13 12 -8 12 -11 -1 -18 -10 -7 -17 -6 -22 2 -6 9 -10 9 -17 -1 -7 -11 -23
-9 -87 11 -44 14 -92 27 -109 30 -16 3 -49 10 -73 16 -29 8 -58 9 -95 2 -28
-5 -56 -7 -60 -4 -5 3 -21 -1 -38 -7 -19 -8 -33 -9 -42 -3 -6 6 -21 9 -32 7
-10 -1 -24 1 -30 6 -25 21 -89 25 -280 16 -140 -6 -151 -6 -173 13 -19 17 -21
26 -16 60 4 27 12 41 21 41 10 0 14 -7 10 -20 -7 -29 2 -25 13 6 6 14 14 23
19 20 17 -11 38 5 51 39 8 19 17 35 20 35 3 0 15 7 26 15 18 14 17 14 -16 9
-33 -5 -34 -5 -16 10 11 9 25 16 30 16 6 0 -2 7 -18 15 -15 8 -32 12 -37 9 -5
-3 -9 -1 -9 5 0 6 13 17 30 26 16 8 29 19 28 23 0 4 2 15 6 25 9 18 26 23 26
7z m-97 -120 c-3 -11 -7 -20 -9 -20 -2 0 -4 9 -4 20 0 11 4 20 9 20 5 0 7 -9
4 -20z m-27 -98 c-12 -11 -18 7 -10 30 l8 23 4 -23 c2 -13 1 -26 -2 -30z m889
18 c-11 -5 -14 -9 -7 -9 6 -1 12 -5 12 -11 0 -5 -7 -7 -15 -4 -23 9 -18 34 8
33 21 0 21 -1 2 -9z m-855 -10 c0 -5 -2 -10 -4 -10 -3 0 -8 5 -11 10 -3 6 -1
10 4 10 6 0 11 -4 11 -10z m943 -65 c-3 -9 -8 -14 -10 -11 -3 3 -2 9 2 15 9
16 15 13 8 -4z m31 -56 c-3 -5 -10 -7 -15 -3 -5 3 -7 10 -3 15 3 5 10 7 15 3
5 -3 7 -10 3 -15z m-864 -131 c0 32 24 27 56 -10 15 -18 34 -31 42 -30 14 3
14 1 2 -15 -12 -15 -12 -16 0 -5 20 18 44 15 74 -9 14 -11 26 -15 26 -9 0 20
44 49 75 50 17 0 41 -8 55 -17 31 -22 58 -24 92 -7 15 8 38 14 51 14 29 0 78
-46 70 -66 -3 -8 9 -1 27 16 35 32 70 40 70 14 0 -11 10 -7 38 16 l37 31 3
-34 c2 -18 -2 -46 -8 -61 -9 -26 -14 -28 -45 -22 -22 5 -35 3 -35 -4 0 -6 -12
-15 -26 -21 -20 -7 -32 -6 -50 6 -21 13 -23 13 -29 -4 -11 -35 -124 -38 -151
-5 -10 13 -12 12 -18 -1 -4 -11 -21 -15 -65 -15 -49 0 -62 4 -74 21 -10 13
-17 17 -22 9 -10 -17 -68 -4 -83 18 -11 17 -17 18 -41 9 -38 -14 -58 -4 -66
33 -5 21 -11 30 -21 26 -18 -7 -34 24 -34 65 l0 32 25 -23 25 -23 0 21z m176
-3 c23 -18 10 -18 -36 0 -32 12 -33 14 -9 14 14 1 34 -6 45 -14z m1000 -47 c4
-7 3 -8 -4 -4 -7 4 -12 1 -12 -8 0 -10 6 -13 15 -10 21 8 19 -9 -6 -40 -11
-14 -30 -26 -42 -26 -19 -1 -20 -2 -5 -11 13 -7 15 -15 9 -32 -5 -12 -4 -29 2
-38 17 -28 0 -67 -32 -74 -16 -3 -32 -13 -35 -21 -5 -13 -9 -13 -29 3 -25 18
-26 58 -1 49 7 -3 16 0 20 5 3 6 15 9 25 6 12 -3 19 0 19 9 0 8 -10 14 -25 14
-14 0 -25 5 -25 11 0 6 -6 9 -14 6 -14 -6 -15 15 -2 45 4 9 9 23 10 32 4 27
46 64 66 59 12 -3 22 3 29 16 13 23 26 27 37 9z m-850 -165 c-7 -7 -77 -5 -85
2 -2 3 17 5 44 5 27 0 45 -3 41 -7z m91 0 c-24 -3 -35 -8 -31 -15 4 -7 2 -8
-5 -4 -20 13 -1 26 37 24 l37 -1 -38 -4z m-730 -69 c-3 -3 -12 -4 -19 -1 -8 3
-5 6 6 6 11 1 17 -2 13 -5z m1333 -62 c0 -28 -11 -34 -31 -16 -11 10 -19 12
-24 5 -3 -6 -10 -11 -15 -11 -6 0 -2 9 7 20 22 26 63 27 63 2z m-523 -8 c-3
-3 -12 -4 -19 -1 -8 3 -5 6 6 6 11 1 17 -2 13 -5z m-107 -64 c0 -5 -2 -10 -4
-10 -3 0 -8 5 -11 10 -3 6 -1 10 4 10 6 0 11 -4 11 -10z m90 -64 c0 -9 -30
-14 -35 -6 -4 6 3 10 14 10 12 0 21 -2 21 -4z"/>
<path d="M2735 5420 c-4 -6 -10 -8 -14 -6 -4 3 -8 -1 -8 -9 0 -20 11 -19 32 5
10 11 13 20 7 20 -6 0 -14 -5 -17 -10z"/>
<path d="M2600 5350 c-8 -5 -10 -10 -5 -10 6 0 17 5 25 10 8 5 11 10 5 10 -5
0 -17 -5 -25 -10z"/>
<path d="M3390 5243 c0 -5 5 -15 10 -23 8 -12 10 -11 10 8 0 12 -4 22 -10 22
-5 0 -10 -3 -10 -7z"/>
<path d="M2205 4870 c3 -5 8 -10 11 -10 2 0 4 5 4 10 0 6 -5 10 -11 10 -5 0
-7 -4 -4 -10z"/>
<path d="M2892 4788 c3 -7 12 -14 21 -16 12 -2 15 1 11 12 -7 19 -38 22 -32 4z"/>
<path d="M2660 4650 c0 -5 7 -10 16 -10 8 0 12 5 9 10 -3 6 -10 10 -16 10 -5
0 -9 -4 -9 -10z"/>
<path d="M2536 4173 c-6 -14 -5 -15 5 -6 7 7 10 15 7 18 -3 3 -9 -2 -12 -12z"/>
<path d="M2994 4108 c19 -30 64 -63 74 -54 3 3 0 6 -7 6 -7 0 -9 5 -6 10 4 6
3 10 -2 9 -20 -4 -27 2 -13 12 13 9 13 10 0 6 -8 -2 -26 5 -39 17 l-24 21 17
-27z"/>
<path d="M2215 3820 c-3 -5 1 -10 10 -10 9 0 13 5 10 10 -3 6 -8 10 -10 10 -2
0 -7 -4 -10 -10z"/>
<path d="M2252 3821 c2 -7 7 -12 11 -12 12 1 9 15 -3 20 -7 2 -11 -2 -8 -8z"/>
<path d="M2378 3683 c-10 -2 -18 -9 -18 -14 0 -14 16 -11 30 6 7 8 11 14 9 14
-2 -1 -12 -3 -21 -6z"/>
<path d="M2258 3673 c7 -3 16 -2 19 1 4 3 -2 6 -13 5 -11 0 -14 -3 -6 -6z"/>
<path d="M2175 3651 c-3 -5 -1 -12 5 -16 5 -3 10 1 10 9 0 18 -6 21 -15 7z"/>
<path d="M2987 3604 c17 -7 35 -19 38 -25 6 -8 10 -7 16 2 14 22 10 39 -8 39
-15 0 -16 -2 -3 -10 26 -16 4 -21 -26 -5 -16 8 -33 15 -39 14 -5 0 4 -7 22
-15z"/>
<path d="M2923 3595 c0 -18 19 -15 25 3 2 7 -3 12 -10 12 -8 0 -15 -7 -15 -15z"/>
<path d="M2968 3563 c7 -3 16 -2 19 1 4 3 -2 6 -13 5 -11 0 -14 -3 -6 -6z"/>
<path d="M1730 3530 c0 -5 7 -10 15 -10 8 0 15 5 15 10 0 6 -7 10 -15 10 -8 0
-15 -4 -15 -10z"/>
<path d="M1541 3264 c0 -11 3 -14 6 -6 3 7 2 16 -1 19 -3 4 -6 -2 -5 -13z"/>
<path d="M3080 3229 c0 -5 5 -7 10 -4 6 3 10 8 10 11 0 2 -4 4 -10 4 -5 0 -10
-5 -10 -11z"/>
<path d="M3087 3204 c-9 -9 4 -35 14 -28 5 3 9 12 9 20 0 14 -12 19 -23 8z"/>
<path d="M1615 3190 c-4 -6 -13 -9 -21 -6 -14 6 -20 -9 -6 -18 9 -6 47 22 40
30 -3 3 -9 0 -13 -6z"/>
<path d="M3050 3172 c0 -5 6 -16 13 -26 12 -16 14 -16 26 -2 11 14 11 16 -3
16 -9 0 -16 5 -16 10 0 6 -4 10 -10 10 -5 0 -10 -4 -10 -8z"/>
<path d="M2480 3000 c0 -5 4 -10 9 -10 6 0 13 5 16 10 3 6 -1 10 -9 10 -9 0
-16 -4 -16 -10z"/>
<path d="M2967 2969 c-4 -15 1 -22 19 -29 28 -11 32 -44 7 -60 -15 -9 -14 -10
7 -4 38 10 61 34 54 57 -4 11 -1 23 7 28 11 7 10 9 -3 9 -10 0 -18 -4 -18 -10
0 -19 -42 -10 -47 10 -7 26 -19 26 -26 -1z"/>
<path d="M2447 2940 c3 -11 7 -20 9 -20 2 0 8 9 14 20 9 17 8 20 -9 20 -14 0
-18 -5 -14 -20z"/>
<path d="M2922 2943 c-6 -2 -10 -9 -7 -13 7 -11 35 -2 35 11 0 10 -8 10 -28 2z"/>
<path d="M2810 2910 c0 -5 -3 -9 -7 -9 -20 3 -23 -2 -9 -16 8 -8 22 -15 31
-15 8 0 18 7 21 15 4 8 13 15 21 15 8 0 11 5 8 10 -3 6 -19 10 -36 10 -16 0
-29 -4 -29 -10z"/>
<path d="M2472 2886 c7 -8 17 -12 22 -9 4 3 2 9 -5 14 -22 13 -31 11 -17 -5z"/>
<path d="M2680 2869 c0 -5 5 -7 10 -4 6 3 10 8 10 11 0 2 -4 4 -10 4 -5 0 -10
-5 -10 -11z"/>
<path d="M1360 2836 c-108 -38 -159 -67 -213 -118 -50 -47 -91 -68 -105 -54
-3 4 -1 15 5 25 7 11 9 21 6 24 -3 3 -67 -25 -142 -63 -179 -90 -289 -133
-626 -246 -154 -52 -281 -94 -282 -94 -2 0 -3 -5 -3 -11 0 -7 17 -9 48 -6 26
2 37 2 25 0 -13 -2 -23 -9 -23 -14 0 -5 -7 -9 -15 -9 -8 0 -15 -7 -15 -15 0
-8 -5 -15 -10 -15 -7 0 -10 -279 -9 -850 1 -779 2 -851 17 -861 14 -9 14 -10
1 -6 -13 4 -16 -25 -18 -259 l-2 -264 2191 0 c2187 0 2191 0 2185 20 -4 11 -2
20 4 20 6 0 20 -9 31 -20 20 -20 33 -20 806 -20 625 0 785 3 782 13 -14 40
-79 251 -93 302 -38 139 -58 207 -99 325 -24 69 -78 226 -120 350 -71 207 -95
274 -131 355 -8 17 -27 62 -43 100 -26 61 -86 189 -111 235 -4 8 -16 31 -26
50 -9 19 -26 51 -37 70 -11 19 -30 53 -41 75 -12 22 -24 42 -27 45 -3 3 -27
49 -55 103 -27 54 -59 108 -71 119 -35 35 -150 98 -163 89 -2 -1 -7 1 -10 6
-9 13 -165 86 -248 116 -39 14 -107 44 -150 65 -43 22 -121 55 -173 75 -52 20
-126 50 -165 67 -62 28 -227 89 -455 167 -41 14 -86 33 -100 43 -30 21 -97 50
-116 50 -8 0 -11 -9 -9 -22 11 -73 13 -108 6 -112 -5 -3 -13 11 -18 32 -13 50
-59 122 -79 122 -10 0 -14 -6 -10 -15 13 -36 27 -145 22 -176 -3 -19 -10 -65
-16 -103 -6 -37 -13 -72 -16 -77 -3 -5 -12 -35 -20 -66 -8 -32 -26 -79 -39
-105 -14 -26 -25 -54 -25 -61 0 -8 -20 -55 -44 -104 -24 -50 -49 -105 -54
-124 -9 -30 -57 -136 -82 -179 -4 -8 -27 -48 -50 -87 -79 -140 -248 -335 -345
-400 -22 -15 -57 -40 -78 -56 -40 -31 -344 -187 -363 -187 -7 0 -74 30 -151
67 -196 95 -245 129 -397 273 -67 62 -169 169 -211 221 -125 150 -301 466
-370 664 -37 105 -46 244 -20 311 23 61 104 140 190 186 79 42 70 47 -25 14z
m2389 -187 c13 -38 15 -143 2 -135 -4 3 -11 34 -14 68 -3 35 -9 71 -12 81 -4
9 -3 17 3 17 6 0 15 -14 21 -31z m910 -1756 c21 -58 64 -148 73 -151 4 -2 8
-7 8 -12 0 -14 93 -207 149 -309 28 -52 50 -100 48 -105 -2 -6 -11 4 -21 22
-9 17 -20 32 -25 32 -4 0 -21 28 -36 63 -15 34 -33 67 -39 72 -17 14 -171 331
-184 377 -9 34 -7 48 8 48 3 0 12 -17 19 -37z m87 -451 c16 -10 40 -60 52
-107 21 -82 22 -95 12 -95 -5 0 -10 6 -10 13 0 7 -18 49 -40 93 -48 95 -51
121 -14 96z"/>
<path d="M5570 1483 c5 -16 18 -53 30 -83 12 -30 46 -131 76 -225 30 -93 74
-231 98 -305 24 -74 49 -162 56 -194 7 -33 20 -78 29 -100 10 -23 23 -68 30
-101 8 -33 21 -82 31 -110 9 -27 15 -56 13 -62 -6 -17 8 -16 35 3 23 16 31 67
12 79 -5 3 -10 13 -10 21 0 8 -15 53 -34 102 -18 48 -47 132 -64 187 -130 423
-196 610 -266 752 -29 58 -50 79 -36 36z"/>
</g>
</svg>
